<?xml version="1.0" encoding="utf-8"?>
<!-- Generator: Adobe Illustrator 27.0.0, SVG Export Plug-In . SVG Version: 6.00 Build 0)  -->
<svg version="1.1" id="Layer_1" xmlns="http://www.w3.org/2000/svg" xmlns:xlink="http://www.w3.org/1999/xlink" x="0px" y="0px"
	 viewBox="0 0 1200 628" style="enable-background:new 0 0 1200 628;" xml:space="preserve">
<style type="text/css">
	.st0{fill:#191C1F;stroke:#000000;stroke-miterlimit:10;}
	.st1{opacity:0.27;}
	.st2{fill:url(#SVGID_1_);}
	.st3{fill:url(#SVGID_00000177468390086203872900000013343191872950567067_);}
	.st4{fill:url(#SVGID_00000128486422614225798770000012445603920700621241_);}
	.st5{fill:url(#SVGID_00000068655934737013346720000008121823465795033535_);}
	.st6{fill:url(#SVGID_00000050632240935643691930000004345990826888054195_);}
	.st7{fill:url(#SVGID_00000096056275786039601120000016077966747044226736_);}
	.st8{fill:url(#SVGID_00000074440946397543901480000006643847036162038915_);}
	.st9{fill:url(#SVGID_00000075128250273189362490000009370628675894409107_);}
	.st10{fill:#FFFFFF;}
	.st11{fill:#F74040;}
</style>
<rect x="-0.5" class="st0" width="1200.5" height="628"/>
<g transform="rotate(0 126.53498639201852 287.5)" class="st1">
	
		<linearGradient id="SVGID_1_" gradientUnits="userSpaceOnUse" x1="-4287.1245" y1="9773.5273" x2="-1165.4404" y2="12272.1475" gradientTransform="matrix(-0.1321 0 0 0.1321 247.4873 -1145.1893)">
		<stop  offset="0" style="stop-color:#EC0A71"/>
		<stop  offset="1" style="stop-color:#FBB03B"/>
	</linearGradient>
	<path class="st2" d="M363.6,361.6c0,108.4,87.8,196.2,196.2,196.2S756,470,756,361.6c0-6.9,0-13.7-1.4-21.3
		c-2.7-28.1-12.3-55.6-26.8-79.6c-2.1-3.4-4.8-7.5-7.5-11c-12.3-17.8-28.1-32.9-41.8-48.7c0,0-2.7-2.7-6.2-7.5
		c-7.5-9.6-14.4-20.6-19.9-31.6c-11-22.6-19.9-53.5-11-85.1h-0.7c0,0-83.7,19.9-117.3,89.9c-2.7-11-5.5-24.7-4.8-41.8
		C362.3,213.4,364.3,343,364.3,343C363.6,349.2,363.6,355.4,363.6,361.6z M507.7,220.2c9.6,46,39.1,74.8,39.1,74.8
		c4.1-56.9,27.4-89.2,42.5-105c4.8,22.6,19.2,43.2,33.6,61.1c20.6,25.4,39.1,49.4,46,83c6.9,35.7,0,72.7-24,100.8
		c-21.3,24.7-52.8,39.1-85.1,39.1c-0.7,0-2.1,0-2.7,0c-7.5-20.6-11-48,8.2-67.9c34.3-35,97.4-25.4,97.4-25.4
		c-7.5-15.8-15.8-30.9-48.7-36.4c-11-46-90.6-24-125.5-50.8c2.1,13.7,8.9,26.8,17.2,39.1c-22,2.7-39.1,0-52.8-5.5
		C453.5,326.6,451.5,266.9,507.7,220.2z"/>
	
		<linearGradient id="SVGID_00000153673095222837320610000015289514039502012812_" gradientUnits="userSpaceOnUse" x1="-1976.4724" y1="11388.1787" x2="-2688.5459" y2="12863.1904" gradientTransform="matrix(-0.1321 0 0 0.1321 247.4873 -1145.1893)">
		<stop  offset="0" style="stop-color:#EC0A71"/>
		<stop  offset="1" style="stop-color:#FBB03B;stop-opacity:0"/>
	</linearGradient>
	<path style="fill:url(#SVGID_00000153673095222837320610000015289514039502012812_);" d="M537.9,393.8l-36.4-6.9
		C568.7,332,662,380,662,380s-63.1-9.6-97.4,25.4c-19.2,19.9-15.1,47.3-8.2,67.9c0.7,0,2.1,0,2.7,0c26.1,0,51.5-9.6,71.3-26.1V544
		c-22,8.9-46,13.7-71.3,13.7c-43.9,0-83.7-14.4-116.6-38.4C459.7,413.7,537.9,393.8,537.9,393.8z"/>
	
		<linearGradient id="SVGID_00000173122732354319418760000011244458117901021879_" gradientUnits="userSpaceOnUse" x1="-2230.9963" y1="11721.0078" x2="-2345.438" y2="9546.6377" gradientTransform="matrix(-0.1321 0 0 0.1321 247.4873 -1145.1893)">
		<stop  offset="0" style="stop-color:#EC0A71"/>
		<stop  offset="1" style="stop-color:#FBB03B"/>
	</linearGradient>
	<path style="fill:url(#SVGID_00000173122732354319418760000011244458117901021879_);" d="M546.8,295c0,0-30.2-28.8-39.1-74.8
		c-17.8,15.1-30.2,30.9-38.4,46.6c-5.5-90.6,49.4-141.3,49.4-141.3c-0.7,17.2,1.4,30.9,4.8,41.8c33.6-70.7,117.3-90.6,117.3-90.6
		S518.7,142,546.8,295z"/>
	
		<linearGradient id="SVGID_00000015328199682584582950000016898578704460017059_" gradientUnits="userSpaceOnUse" x1="-2982.6851" y1="9251.2432" x2="-2982.6851" y2="9251.2432" gradientTransform="matrix(-0.1321 0 0 0.1321 247.4873 -1145.1893)">
		<stop  offset="0" style="stop-color:#EC0A71"/>
		<stop  offset="1" style="stop-color:#FBB03B"/>
	</linearGradient>
	<path style="fill:url(#SVGID_00000015328199682584582950000016898578704460017059_);" d="M641.5,76.9L641.5,76.9L641.5,76.9
		L641.5,76.9z"/>
	
		<linearGradient id="SVGID_00000176033568320878278980000007234561922453761702_" gradientUnits="userSpaceOnUse" x1="-2090.1013" y1="9797.3496" x2="-1257.2274" y2="11374.0879" gradientTransform="matrix(-0.1321 0 0 0.1321 247.4873 -1145.1893)">
		<stop  offset="0" style="stop-color:#EC0A71"/>
		<stop  offset="1" style="stop-color:#FBB03B;stop-opacity:0"/>
	</linearGradient>
	<path style="fill:url(#SVGID_00000176033568320878278980000007234561922453761702_);" d="M518.7,125.6c0,0-54.9,51.5-49.4,141.3
		c-17.2,32.2-15.8,59.7-15.8,59.7c8.2,3.4,17.8,6.2,30.2,6.9c23.3,81-63.8,53.5-119.4,27.4c0-5.5,0-11.7,0.7-17.2
		C364.3,343,362.3,213.4,518.7,125.6z"/>
	
		<linearGradient id="SVGID_00000024001120677066895450000006086617852677667713_" gradientUnits="userSpaceOnUse" x1="-2421.2866" y1="9741.5332" x2="-2974.4155" y2="10650.7012" gradientTransform="matrix(-0.1321 0 0 0.1321 247.4873 -1145.1893)">
		<stop  offset="0" style="stop-color:#EC0A71"/>
		<stop  offset="1" style="stop-color:#FBB03B;stop-opacity:0"/>
	</linearGradient>
	<path style="fill:url(#SVGID_00000024001120677066895450000006086617852677667713_);" d="M657.3,301.2
		c-8.9-17.8-21.3-33.6-34.3-50.1c-13.7-17.8-28.8-38.4-33.6-61.1c-15.8,15.8-38.4,48-42.5,105c-28.1-153,94-218.2,94-218.2h0.7
		c-8.2,31.6,0,61.7,11,85.1c5.5,11,11.7,22,19.9,31.6c3.4,4.8,6.2,7.5,6.2,7.5c11,13,24,25.4,35,39.1
		C696.4,260.7,677.2,282.7,657.3,301.2z"/>
	
		<linearGradient id="SVGID_00000062186502895754267120000001804395224027744405_" gradientUnits="userSpaceOnUse" x1="-4774.2949" y1="10382.1777" x2="-1652.611" y2="12880.7969" gradientTransform="matrix(-0.1321 0 0 0.1321 247.4873 -1145.1893)">
		<stop  offset="0" style="stop-color:#EC0A71"/>
		<stop  offset="1" style="stop-color:#FBB03B"/>
	</linearGradient>
	<path style="fill:url(#SVGID_00000062186502895754267120000001804395224027744405_);" d="M557.1,474.1c0.7,0,2.1,0,2.7,0
		c32.9,0,63.8-14.4,85.1-39.1c24-28.1,30.9-64.5,24-100.8c-2.1-8.9-4.8-17.8-8.2-25.4c4.8-19.2,14.4-52.8,20.6-56.3
		c4.8-3.4,24.7-2.7,40.5-0.7c2.1,3.4,4.8,6.9,6.9,9.6c14.4,24.7,24,51.5,26.8,79.6c0.7,6.9,1.4,13.7,1.4,21.3
		c0,54.2-22,102.9-57.6,138.6C595.5,542.7,557.1,474.1,557.1,474.1z"/>
	
		<linearGradient id="SVGID_00000183942969615891881480000006358690387486580125_" gradientUnits="userSpaceOnUse" x1="-2924.9438" y1="12501.4639" x2="-3293.6953" y2="11340.1025" gradientTransform="matrix(-0.1321 0 0 0.1321 247.4873 -1145.1893)">
		<stop  offset="0" style="stop-color:#EC0A71"/>
		<stop  offset="1" style="stop-color:#FBB03B;stop-opacity:0"/>
	</linearGradient>
	<path style="fill:url(#SVGID_00000183942969615891881480000006358690387486580125_);" d="M557.1,474.1c0.7,0,2.1,0,2.7,0
		c32.9,0,63.8-14.4,85.1-39.1c24-28.1,30.9-64.5,24-100.8c-2.1-8.9-4.8-17.8-8.2-25.4c4.8-19.2,14.4-52.8,20.6-56.3
		c4.8-3.4,24.7-2.7,40.5-0.7c2.1,3.4,4.8,6.9,6.9,9.6c14.4,24.7,24,51.5,26.8,79.6c0.7,6.9,1.4,13.7,1.4,21.3
		c0,54.2-22,102.9-57.6,138.6C595.5,542.7,557.1,474.1,557.1,474.1z"/>
</g>
<g transform="rotate(0 333.00326516158077 304.9393817090302)">
	<g>
		<path class="st10" d="M157,393.7l-3.6-10h-15.8l-3.4,10h-5.4l14.4-37.6h4.4l14.4,37.6H157z M145.4,362.1l-6.4,17.8h12.8
			L145.4,362.1z M232.6,381.7h5c-0.4,4-2,7.2-4.4,9.2c-2.6,2.2-5.8,3.2-10,3.2l0,0c-4.4,0-8-1.6-10.8-4.8c-2.6-3.2-4-7.6-4-12.8l0,0
			v-3.6c0-3.4,0.6-6.6,1.8-9.2s3-4.8,5.2-6.2c2.4-1.4,5-2,8-2l0,0c4,0,7.2,1.2,9.6,3.4c2.4,2.2,4,5.2,4.2,9.4l0,0h-5
			c-0.4-3-1.4-5.2-2.8-6.6s-3.4-2-6-2l0,0c-3.2,0-5.8,1.2-7.6,3.4c-1.8,2.2-2.6,5.8-2.6,10l0,0v3.6c0,4,0.8,7.4,2.6,9.8
			c1.6,2.4,4,3.6,7.2,3.6l0,0c2.8,0,4.8-0.6,6.4-1.8C231,387.1,232,384.9,232.6,381.7L232.6,381.7z M281,393.7l-8.2-15.2H264v15.2
			h-5v-37.6h12.6c4.2,0,7.6,1,9.8,3c2.2,2,3.4,4.8,3.4,8.4l0,0c0,2.4-0.6,4.4-2,6.2c-1.2,1.8-3,3-5.2,4l0,0l8.8,16l0,0
			C286.4,393.7,281,393.7,281,393.7z M263.8,360.1v14.4h7.6c2.6,0,4.4-0.6,5.8-2c1.4-1.2,2.2-3,2.2-5.2l0,0c0-2.4-0.6-4-2-5.2
			s-3.4-2-6-2l0,0L263.8,360.1L263.8,360.1z M306.9,355.9l9.8,19l10-19h5.8l-13.2,23.8v14h-4.8v-14l-13-23.8H306.9z M365.7,378.9h-9
			v14.8h-5v-37.6h14c4.2,0,7.4,1.2,9.6,3.2c2.4,2,3.4,4.8,3.4,8.4l0,0c0,3.6-1.2,6.4-3.4,8.4S369.9,378.9,365.7,378.9L365.7,378.9z
			 M356.9,360.1v14.8h9c2.6,0,4.8-0.6,6.2-1.8c1.4-1.2,2-3,2-5.4l0,0c0-2.2-0.6-4-2-5.2c-1.4-1.4-3.4-2-5.8-2l0,0L356.9,360.1
			L356.9,360.1z M426.1,355.9v4h-12.2v33.8h-4.8v-33.6h-12.2v-4h29.2V355.9z M474.7,373.7v2.4c0,3.8-0.6,7-1.8,9.6
			c-1.2,2.8-3,4.8-5.2,6.2s-4.8,2.2-8,2.2l0,0c-3,0-5.6-0.6-8-2.2c-2.2-1.4-4-3.4-5.2-6.2c-1.2-2.6-2-5.8-2-9.4l0,0v-2.8
			c0-3.6,0.6-6.8,2-9.6c1.2-2.8,3-4.8,5.2-6.4c2.4-1.6,4.8-2.2,8-2.2l0,0c3,0,5.8,0.6,8,2.2c2.4,1.4,4,3.6,5.2,6.4
			C474.1,366.9,474.7,370.1,474.7,373.7L474.7,373.7z M469.7,376.5v-2.8c0-4.4-0.8-8-2.6-10.4c-1.8-2.4-4.4-3.6-7.6-3.6l0,0
			c-3.2,0-5.6,1.2-7.4,3.6s-2.6,5.8-2.8,10l0,0v2.8c0,4.4,1,7.8,2.8,10.2c1.8,2.6,4.4,3.8,7.6,3.8l0,0c3.2,0,5.8-1.2,7.4-3.4
			C468.9,384.1,469.7,380.9,469.7,376.5L469.7,376.5z M529.7,355.9v33.6h17.8v4h-22.8v-37.6H529.7z M593,393.7l-3.6-10h-15.8
			l-3.4,10H565l14.4-37.6h4.4l14.4,37.6H593z M581.6,362.1l-6.4,17.8H588L581.6,362.1z M618.4,355.9l6,25.8l0.6,5l1.2-4.4l7.4-26.4
			h4.2l7.2,26.4l1,4.6l0.8-5.2l5.8-25.8h5l-9,37.8h-4.4l-7.8-27.4l-0.6-3l-0.6,3l-8.2,27.4h-4.4l-9-37.6L618.4,355.9L618.4,355.9z
			 M731,355.9v4h-12.2v33.8H714v-33.6h-12.2v-4H731V355.9z M773.2,393.7l-8.2-15.2h-8.8v15.2h-5v-37.6h12.6c4.2,0,7.6,1,9.8,3
			s3.4,4.8,3.4,8.4l0,0c0,2.4-0.6,4.4-2,6.2c-1.2,1.8-3,3-5.2,4l0,0l8.8,16l0,0H773.2z M756.2,360.1v14.4h7.6c2.6,0,4.4-0.6,5.8-2
			c1.4-1.2,2.2-3,2.2-5.2l0,0c0-2.4-0.6-4-2-5.2s-3.4-2-6-2l0,0L756.2,360.1L756.2,360.1z M819.9,372.3v4h-16.4v13.4h19v4h-24v-37.6
			h23.8v4h-18.6v12.2H819.9z M868.1,393.7l-3.6-10h-15.8l-3.4,10h-5.2l14.4-37.6h4.4l14.2,37.6H868.1z M856.5,362.1l-6.4,17.8h12.8
			L856.5,362.1z M915.7,355.9v4h-12.2v33.8h-4.8v-33.6h-12.2v-4h29.2V355.9z M941.3,355.9v37.8h-5v-37.8H941.3z M976.3,376.9
			L976.3,376.9c-4.2-1.2-7.4-2.8-9.4-4.4c-2-1.8-3-4-3-6.6l0,0c0-3,1.2-5.4,3.6-7.4c2.4-2,5.4-3,9.2-3l0,0c2.6,0,4.8,0.6,7,1.6
			c2,1,3.6,2.4,4.8,4.2c1.2,1.8,1.6,3.8,1.6,5.8l0,0h-5c0-2.2-0.6-4-2.2-5.4c-1.4-1.2-3.4-2-6.2-2l0,0c-2.6,0-4.4,0.6-5.8,1.6
			c-1.4,1.2-2,2.6-2,4.4l0,0c0,1.6,0.6,2.8,2,4c1.2,1.2,3.4,2,6.6,3c3,0.8,5.6,1.8,7.4,3c1.8,1.2,3,2.4,4,3.8c0.8,1.4,1.2,3,1.2,5
			l0,0c0,3-1.2,5.4-3.6,7.4c-2.4,1.8-5.6,2.8-9.6,2.8l0,0c-2.6,0-5-0.6-7.2-1.6s-4-2.4-5.2-4s-1.8-3.8-1.8-5.8l0,0h5
			c0,2.2,0.8,4,2.6,5.4c1.6,1.2,4,2,6.6,2l0,0c2.6,0,4.6-0.6,6-1.6c1.4-1.2,2-2.6,2-4.4s-0.6-3.4-2-4.4
			C982.1,378.9,979.7,377.9,976.3,376.9z M1032.8,372.3v4h-16.4v13.4h19v4h-24v-37.6h23.8v4h-18.6v12.2
			C1016.5,372.3,1032.8,372.3,1032.8,372.3z"/>
	</g>
</g>
<g transform="rotate(0 333.00326516158077 277.0091645233372)">
	<g>
		<path class="st11" d="M166.6,266.5v64.2h-16.4v-64.2H129v-13.8h58.8v13.8H166.6z M301,252.9v78h-16.4v-33.8h-30.8v33.6h-16.6v-78
			h16.4v30.6h31v-30.4L301,252.9L301,252.9z M403.1,316.9v13.6h-44.8v-78h44.8v13.6h-28.4v17.2h26.4v13.6h-26.4v20L403.1,316.9
			L403.1,316.9z M555.8,265.3L555.8,265.3c-3.2,0-6,0.6-8.4,1.8c-2.6,1.2-4.4,3-6.2,5.2c-1.6,2.4-3,5.2-3.8,8.4
			c-0.8,3.2-1.2,7-1.2,11l0,0c0,5.4,0.6,10.2,2,14c1.4,4,3.4,6.8,6.4,9c3,2,6.6,3,11.2,3l0,0c3.2,0,6.2-0.4,9.4-1.2
			c3.2-0.6,6.6-1.6,10.4-3l0,0v13.8c-3.4,1.4-6.8,2.4-10.2,3s-7.2,1-11.2,1l0,0c-8,0-14.6-1.6-19.8-5s-9-8-11.4-14
			c-2.6-6-3.8-13-3.8-21l0,0c0-5.8,0.8-11.2,2.4-16.2c1.6-4.8,4-9.2,7-12.6c3-3.6,7-6.4,11.4-8.4s9.8-3,15.6-3l0,0
			c4,0,7.8,0.4,11.6,1.4c4,1,7.6,2.4,11.2,4l0,0l-5.4,13.8c-3-1.4-5.8-2.6-8.8-3.6C561.6,265.9,558.8,265.3,555.8,265.3z
			 M700.6,291.5L700.6,291.5c0,6-0.6,11.4-2.2,16.4c-1.6,4.8-3.8,9.2-6.8,12.6s-6.8,6.2-11.6,8.2s-10.2,3-16.4,3l0,0
			c-6.4,0-11.8-1-16.4-3c-4.6-2-8.6-4.6-11.6-8.2s-5.2-7.8-6.8-12.6s-2.2-10.4-2.2-16.4l0,0c0-8,1.2-15,4-21c2.6-6,6.6-10.6,12.2-14
			c5.4-3.4,12.6-4.8,21-4.8l0,0c8.6,0,15.4,1.6,20.8,4.8c5.4,3.4,9.4,8,12.2,14C699.2,276.3,700.6,283.5,700.6,291.5z M643.6,291.5
			L643.6,291.5c0,5.4,0.6,10,2,14s3.4,7,6.4,9s6.6,3.2,11.2,3.2l0,0c4.8,0,8.6-1.2,11.4-3.2c3-2,5-5.2,6.4-9s2-8.6,2-14l0,0
			c0-8.2-1.6-14.6-4.6-19.2c-3-4.8-8-7-15-7l0,0c-4.6,0-8.6,1.2-11.4,3.2c-3,2-5,5.2-6.4,9C644.4,281.3,643.6,286.1,643.6,291.5z
			 M818.9,290.9L818.9,290.9c0,8.8-1.6,16.2-5,22s-8.2,10.4-14.6,13.2c-6.2,3-14,4.4-23,4.4l0,0h-22v-78h24.6
			c8.2,0,15.2,1.4,21.2,4.4s10.6,7.2,14,12.8C817.1,275.5,818.9,282.7,818.9,290.9z M801.7,291.5L801.7,291.5
			c0-5.8-0.8-10.4-2.6-14.2c-1.8-3.8-4.2-6.4-7.4-8.2c-3.4-1.8-7.4-2.6-12.2-2.6l0,0h-8.8v50.8h7.2c8,0,14-2,18-6.4
			C799.7,306.3,801.7,299.7,801.7,291.5z M918.5,270.3L918.5,270.3c0,3.6-0.6,6.6-2.2,9.4c-1.6,2.6-3.4,4.8-6,6.4s-5.4,3-8.6,3.6
			l0,0v0.2c6.2,0.8,11,2.6,14.2,5.8c3.2,3,4.8,7.2,4.8,12.2l0,0c0,4.4-1.2,8.6-3.4,12.2s-5.6,6.4-10.4,8.6c-4.6,2-10.6,3-17.8,3l0,0
			c-4.4,0-8.4-0.2-12-1c-3.8-0.6-7.2-1.8-10.4-3.2l0,0v-14c3.4,1.6,6.8,3,10.4,4c3.6,0.8,7.2,1.2,10.2,1.2l0,0c5.8,0,10-1,12.4-3
			s3.4-4.8,3.4-8.6l0,0c0-2.2-0.6-4-1.6-5.4c-1.2-1.6-3-2.6-5.8-3.4s-6.6-1.2-11.2-1.2l0,0h-6v-12.6h6c4.8,0,8.4-0.4,10.8-1.4
			c2.6-1,4.2-2.2,5.2-3.8c1-1.6,1.4-3.4,1.4-5.4l0,0c0-2.8-0.8-4.8-2.6-6.6c-1.4-1.6-4.2-2.6-8.2-2.6l0,0c-2.6,0-4.8,0.2-6.8,1
			c-2,0.6-4,1.4-5.6,2.2c-1.6,0.8-3,1.6-4.4,2.6l0,0l-7.6-11.2c3-2.2,6.6-4,10.8-5.4c4-1.4,9-2.2,14.6-2.2l0,0
			c8,0,14.4,1.6,19.2,4.8C916.1,259.7,918.5,264.3,918.5,270.3z M1009.1,291.5l26.4,39.4h-18.8l-18.2-29.4l-18.2,29.4h-17.8
			l25.8-40.2l-24.2-37.8h18.2l16.8,28l16.4-28h17.8L1009.1,291.5z"/>
	</g>
</g>
</svg>
